<svg xmlns="http://www.w3.org/2000/svg" width="96" height="96" fill="none"><circle cx="48" cy="48" r="44" stroke="#fff" stroke-width="8"/><path fill="#fff" d="M45.147 20.781c.898-2.764 4.808-2.764 5.706 0l4.331 13.33a3 3 0 0 0 2.854 2.073h14.016c2.906 0 4.114 3.72 1.763 5.428l-11.34 8.238a3 3 0 0 0-1.089 3.354l4.331 13.33c.898 2.764-2.265 5.063-4.616 3.354l-11.34-8.238a3 3 0 0 0-3.526 0l-11.34 8.239c-2.35 1.708-5.514-.59-4.616-3.355l4.331-13.33a3 3 0 0 0-1.09-3.354l-11.34-8.239c-2.35-1.708-1.142-5.427 1.764-5.427h14.016a3 3 0 0 0 2.854-2.072z"/></svg>