<svg width="96" height="96" viewBox="0 0 96 96" fill="none" xmlns="http://www.w3.org/2000/svg">
<circle cx="48" cy="48" r="44" stroke="#2C2D2F" stroke-width="8"/>
<path d="M45.1468 20.7811C46.0449 18.0172 49.9551 18.0172 50.8532 20.7812L55.1844 34.1115C55.5861 35.3475 56.7379 36.1844 58.0376 36.1844L72.0539 36.1844C74.9601 36.1844 76.1684 39.9033 73.8173 41.6115L62.4778 49.85C61.4264 50.614 60.9864 51.9681 61.388 53.2041L65.7193 66.5345C66.6174 69.2984 63.4539 71.5967 61.1028 69.8885L49.7634 61.65C48.7119 60.886 47.2881 60.886 46.2366 61.65L34.8972 69.8886C32.5461 71.5968 29.3826 69.2984 30.2807 66.5344L34.612 53.2041C35.0136 51.9681 34.5736 50.614 33.5222 49.85L22.1827 41.6115C19.8316 39.9032 21.0399 36.1844 23.9461 36.1844L37.9624 36.1844C39.2621 36.1844 40.4139 35.3475 40.8156 34.1115L45.1468 20.7811Z" fill="#2C2D2F"/>
</svg>
