<svg width="33" height="26" viewBox="0 0 33 26" fill="none" xmlns="http://www.w3.org/2000/svg">
<path d="M23.8373 19.8647C23.8373 21.6706 23.8373 21.6706 16.2526 21.6706C8.66797 21.6706 8.66797 21.6706 8.66797 19.8647C8.66797 15.6758 12.0637 12.28 16.2526 12.28C20.4415 12.28 23.8373 15.6758 23.8373 19.8647Z" fill="black" fill-opacity="0.8"/>
<rect y="23.1152" width="32.5057" height="2" rx="1" fill="black" fill-opacity="0.8"/>
<rect x="1.44434" y="18.0588" width="5.77879" height="2" rx="1" fill="black" fill-opacity="0.8"/>
<rect x="24.5596" y="18.0588" width="5.77879" height="2" rx="1" fill="black" fill-opacity="0.8"/>
<rect x="21.6709" y="12.032" width="5.77879" height="2" rx="1" transform="rotate(-45 21.6709 12.032)" fill="black" fill-opacity="0.8"/>
<rect x="11.5576" y="4.08618" width="5.77879" height="2" rx="1" transform="rotate(-45 11.5576 4.08618)" fill="black" fill-opacity="0.8"/>
<rect x="5.86621" y="7.9458" width="5.77879" height="2" rx="1" transform="rotate(45 5.86621 7.9458)" fill="black" fill-opacity="0.8"/>
<rect x="16.7012" width="5.77879" height="2" rx="1" transform="rotate(45 16.7012 0)" fill="black" fill-opacity="0.8"/>
<rect x="15.1689" y="10.8352" width="10.8352" height="2" rx="1" transform="rotate(-90 15.1689 10.8352)" fill="black" fill-opacity="0.8"/>
</svg>
